<svg width="128" height="128" viewBox="0 0 128 128" xmlns="http://www.w3.org/2000/svg">
  <!-- Hexagonal background -->
  <defs>
    <linearGradient id="grad" x1="0" y1="0" x2="1" y2="1">
      <stop offset="0%" stop-color="#3A6332"/>
      <stop offset="100%" stop-color="#89C16F"/>
    </linearGradient>
  </defs>
  <polygon 
    points="64,8 112,32 112,96 64,120 16,96 16,32" 
    fill="url(#grad)" 
    stroke="#2A4B24" 
    stroke-width="4" 
    stroke-linejoin="round" />

  <!-- Organic branching paths inside the hex -->
  <g stroke="#2A4B24" stroke-width="4" fill="none" stroke-linecap="round" stroke-linejoin="round">
    <!-- Main branch -->
    <path d="M64,70 
             C64,60 64,50 60,45 
             C58,42 54,40 50,42 
             C46,44 46,48 48,50 
             C52,56 56,60 56,64" />
             
    <!-- Branch offshoots -->
    <path d="M56,64 
             C52,68 49,75 49,79 
             C49,83 53,86 56,84 
             C62,80 65,72 65,68" />

    <path d="M64,70 
             C70,74 74,82 74,86 
             C74,90 70,93 66,91 
             C62,89 62,84 64,82 
             C68,78 70,74 70,72" />

    <!-- Another branching cluster, lower area -->
    <path d="M64,70 
             C60,72 58,78 58,82 
             C58,86 62,90 66,90" />

    <!-- A smaller cluster towards the right -->
    <path d="M64,70 
             C68,68 72,66 74,62 
             C76,58 74,54 70,54 
             C68,54 66,58 66,60" />
  </g>
</svg>
