<?xml version="1.0" encoding="UTF-8" standalone="no"?>
<!-- Created with Inkscape (http://www.inkscape.org/) -->

<svg
   width="16"
   height="16"
   viewBox="0 0 16 16"
   version="1.1"
   id="svg6317"
   inkscape:version="1.3 (0e150ed6c4, 2023-07-21)"
   sodipodi:docname="delete.svg"
   xmlns:inkscape="http://www.inkscape.org/namespaces/inkscape"
   xmlns:sodipodi="http://sodipodi.sourceforge.net/DTD/sodipodi-0.dtd"
   xmlns="http://www.w3.org/2000/svg"
   xmlns:svg="http://www.w3.org/2000/svg"
   xmlns:rdf="http://www.w3.org/1999/02/22-rdf-syntax-ns#"
   xmlns:cc="http://creativecommons.org/ns#"
   xmlns:dc="http://purl.org/dc/elements/1.1/">
  <defs
     id="defs6311" />
  <sodipodi:namedview
     id="base"
     pagecolor="#505050"
     bordercolor="#666666"
     borderopacity="1.0"
     inkscape:pageopacity="0.0"
     inkscape:pageshadow="2"
     inkscape:zoom="31.678384"
     inkscape:cx="5.2401663"
     inkscape:cy="6.3608043"
     inkscape:document-units="mm"
     inkscape:current-layer="layer1"
     showgrid="false"
     inkscape:window-width="3440"
     inkscape:window-height="1369"
     inkscape:window-x="-8"
     inkscape:window-y="-8"
     inkscape:window-maximized="1"
     inkscape:showpageshadow="0"
     inkscape:pagecheckerboard="true"
     inkscape:deskcolor="#505050"
     showborder="true"
     borderlayer="false" />
  <metadata
     id="metadata6314">
    <rdf:RDF>
      <cc:Work
         rdf:about="">
        <dc:format>image/svg+xml</dc:format>
        <dc:type
           rdf:resource="http://purl.org/dc/dcmitype/StillImage" />
      </cc:Work>
    </rdf:RDF>
  </metadata>
  <g
     inkscape:label="Layer 1"
     inkscape:groupmode="layer"
     id="layer1"
     transform="translate(-106.88223,-157.03596)">
    <path
       style="opacity:1;fill:#e47cfa;fill-opacity:1;stroke:none;stroke-width:0.363971;stroke-linecap:round;stroke-linejoin:round;stroke-miterlimit:4;stroke-dasharray:none;stroke-opacity:1;paint-order:stroke fill markers"
       d="m 111.12902,171.97427 c -0.24219,-0.0854 -0.50993,-0.36634 -0.61808,-0.64833 -0.094,-0.24509 -0.0887,-0.16916 -0.1911,-2.77119 -0.0725,-1.8447 -0.11423,-2.84452 -0.15317,-3.67868 -0.0213,-0.4555 -0.0571,-1.30487 -0.0795,-1.88749 -0.0708,-1.83619 -0.11998,-2.90663 -0.13622,-2.95643 -0.0172,-0.46298 0.0553,-0.47087 0.37988,-0.46932 0.18111,-9.3e-4 0.37737,-0.003 0.56679,-0.003 h 1.42201 l 0.0175,-0.0867 c 0.009,-0.0478 0.0258,-0.14733 0.0357,-0.22148 0.46176,-1.71789 4.22537,-1.536 4.57266,0.0482 l 0.0507,0.26 1.65893,7.2e-4 c 0.27808,6e-5 0.52165,7.1e-4 0.72912,9.2e-4 0.41785,0.003 0.44241,0.0441 0.42906,0.4403 l -0.0244,0.77039 c -0.0134,0.42373 -0.043,1.14311 -0.0656,1.5986 -0.0227,0.4555 -0.0599,1.31354 -0.0827,1.90675 -0.0228,0.59322 -0.0587,1.45125 -0.0797,1.90676 -0.0507,1.09802 -0.10603,2.44 -0.15351,3.73153 -0.0213,0.5799 -0.0561,1.13176 -0.0773,1.22633 -0.0933,0.41638 -0.35149,0.71712 -0.72838,0.84848 -0.10482,0.0365 -0.96952,0.0471 -3.71894,0.0451 -3.15257,-0.003 -3.60294,-0.009 -3.75366,-0.0629 z m 1.61235,-2.17872 c 0.0185,-0.40822 0.0418,-1.36411 0.0418,-3.76647 0,-2.4182 -9.2e-4,-3.37881 -0.0199,-3.77138 5e-5,-0.49361 -0.47847,-0.43066 -0.49371,-0.0138 -0.0219,0.36741 -0.0258,1.31258 -0.0258,3.81814 0,2.45688 1e-4,3.37631 0.0199,3.74542 -0.0173,0.53237 0.4796,0.51107 0.47747,-0.0139 z m 2.4309,0.0478 -0.009,-3.83534 c -0.006,-2.44238 -0.003,-3.43667 -0.0445,-3.83897 -0.0303,-0.46143 -0.46956,-0.34954 -0.46014,0.0139 -0.024,0.3218 -0.0255,1.2086 -0.0255,3.86389 0,2.34985 -0.006,3.37258 0.0313,3.81522 0.0487,0.59096 0.5234,0.45302 0.50875,-0.0186 z m 2.31942,0.075 c 0.0219,-0.36675 0.0287,-1.42428 0.0291,-3.89206 3.8e-4,-2.81484 -9.3e-4,-3.63167 -0.0299,-3.90003 -0.0408,-0.37314 -0.45499,-0.34911 -0.47921,0.009 -0.0279,0.27857 -0.0296,1.11224 -0.0296,3.91176 0,2.69461 0.003,3.57332 0.0273,3.88369 0.0205,0.38261 0.46457,0.32797 0.48234,-0.0138 z m -0.92396,-10.34847 c -0.28797,-1.47537 -3.55639,-1.44056 -3.80045,-0.15407 l -0.026,0.14444 z"
       id="path4928"
       inkscape:connector-curvature="0"
       sodipodi:nodetypes="cssssccsccccccccsssssccsccccccccccccccccccccccsccccc"
       inkscape:export-filename="E:\Game Dev\1. Projects\UltimateButtonPack\Assets\Icons\PNG\Trashcan_RecycleBin(Icon).png"
       inkscape:export-xdpi="623.36487"
       inkscape:export-ydpi="623.36487" />
  </g>
</svg>
