<?xml version="1.0" encoding="UTF-8" standalone="no"?>
<!-- Uploaded to: SVG Repo, www.svgrepo.com, Generator: SVG Repo Mixer Tools -->

<svg
   width="32"
   height="32"
   viewBox="0 0 32 32"
   fill="none"
   version="1.1"
   id="svg1"
   sodipodi:docname="mouse_point.svg"
   inkscape:version="1.3 (0e150ed6c4, 2023-07-21)"
   xmlns:inkscape="http://www.inkscape.org/namespaces/inkscape"
   xmlns:sodipodi="http://sodipodi.sourceforge.net/DTD/sodipodi-0.dtd"
   xmlns="http://www.w3.org/2000/svg"
   xmlns:svg="http://www.w3.org/2000/svg">
  <defs
     id="defs1" />
  <sodipodi:namedview
     id="namedview1"
     pagecolor="#505050"
     bordercolor="#ffffff"
     borderopacity="1"
     inkscape:showpageshadow="0"
     inkscape:pageopacity="0"
     inkscape:pagecheckerboard="1"
     inkscape:deskcolor="#505050"
     inkscape:zoom="8.2943625"
     inkscape:cx="-35.807454"
     inkscape:cy="21.038386"
     inkscape:window-width="3440"
     inkscape:window-height="1369"
     inkscape:window-x="-8"
     inkscape:window-y="-8"
     inkscape:window-maximized="1"
     inkscape:current-layer="svg1" />
  <path
     d="M 17.154162,30.545455 H 16.50318 c -3.789309,0 -7.3234914,-1.909673 -9.4001459,-5.079273 L 5.5063359,23.029164 C 4.3731578,21.299564 4.7077396,18.996436 6.2862341,17.6608 l 1.6636364,-1.407636 c 0.1897454,-0.160582 0.2991272,-0.39651 0.2991272,-0.645092 V 3.8181815 c 0,-1.3054036 1.0582546,-2.3636363 2.3636363,-2.3636363 1.305382,0 2.363637,1.0582327 2.363637,2.3636363 v 6.5454545 c 0,-1.3053818 1.058254,-2.3636363 2.363636,-2.3636363 1.305382,0 2.363636,1.0582545 2.363636,2.3636363 v 1.090909 c 0,-1.305382 1.058255,-2.3636362 2.363637,-2.3636362 1.305382,0 2.363636,1.0582542 2.363636,2.3636362 v 2.909091 C 22.430816,13.058254 23.489071,12 24.794453,12 c 1.305381,0 2.363636,1.058254 2.363636,2.363636 v 7.431855 c 0,1.1992 -0.362327,2.370473 -1.039491,3.360145 l -0.708145,1.034909 c -1.864655,2.72531 -4.95411,4.35491 -8.256291,4.35491 z"
     fill="#2f88ff"
     stroke="#000000"
     stroke-width="2.90909"
     stroke-linecap="round"
     stroke-linejoin="round"
     id="path1"
     style="fill:#e47cfa;stroke:#6f007c" />
</svg>
