<?xml version="1.0" encoding="UTF-8" standalone="no"?>
<!-- Uploaded to: SVG Repo, www.svgrepo.com, Generator: SVG Repo Mixer Tools -->

<svg
   width="32"
   height="32"
   viewBox="0 0 32 32"
   fill="none"
   version="1.1"
   id="svg1"
   sodipodi:docname="mouse_drag_bad.svg"
   inkscape:version="1.3 (0e150ed6c4, 2023-07-21)"
   xmlns:inkscape="http://www.inkscape.org/namespaces/inkscape"
   xmlns:sodipodi="http://sodipodi.sourceforge.net/DTD/sodipodi-0.dtd"
   xmlns="http://www.w3.org/2000/svg"
   xmlns:svg="http://www.w3.org/2000/svg">
  <defs
     id="defs1" />
  <sodipodi:namedview
     id="namedview1"
     pagecolor="#505050"
     bordercolor="#ffffff"
     borderopacity="1"
     inkscape:showpageshadow="0"
     inkscape:pageopacity="0"
     inkscape:pagecheckerboard="1"
     inkscape:deskcolor="#505050"
     inkscape:zoom="8.2943625"
     inkscape:cx="36.048581"
     inkscape:cy="26.584322"
     inkscape:window-width="2014"
     inkscape:window-height="1237"
     inkscape:window-x="1107"
     inkscape:window-y="69"
     inkscape:window-maximized="0"
     inkscape:current-layer="svg1" />
  <path
     d="m 22.633511,29.296759 c -3.671255,1.998925 -7.870527,1.574105 -10.074275,0.629642 -2.203748,-0.944463 -7.555706,-4.092674 -7.555706,-9.444632 0,-2.673901 3.6337279,-3.985194 4.7286124,-4.319596 0.1812736,-0.05534 0.3085246,-0.220879 0.3085246,-0.410402 v -4.714634 c 0,-1.2170978 0.986649,-2.2037468 2.203748,-2.2037468 1.217098,0 2.203748,0.986649 2.203748,2.2037468 V 9.4630252 c 0,-1.2170911 0.986649,-2.2037402 2.203747,-2.2037402 1.217098,0 2.203747,0.9866491 2.203747,2.2037402 v 1.5741118 c 0,-1.2170978 0.986651,-2.2037468 2.203748,-2.2037468 1.217098,0 2.203747,0.986649 2.203747,2.2037468 v 2.829046 c 0.0023,-1.215083 0.988098,-2.199404 2.203748,-2.199404 1.217098,0 2.203747,0.984195 2.203747,2.201293 v 8.502625 c 0,2.518568 -2.436715,5.510186 -5.037136,6.926062 z"
     fill="#2f88ff"
     stroke="#000000"
     stroke-width="2.51857"
     stroke-linecap="round"
     stroke-linejoin="round"
     id="path1"
     style="fill:#e47cfa;stroke:#6f007c" />
  <g
     id="g1"
     transform="translate(2.0495845,13.985403)">
    <rect
       style="fill:#250128;stroke:#250128;stroke-width:1.00157;stroke-linecap:square;stroke-linejoin:bevel"
       id="rect1"
       width="9.6451054"
       height="10.12736"
       x="16.999498"
       y="4.8225527"
       rx="2.3329999" />
    <path
       fill="#444444"
       d="m 21.666499,1.7306816 c -4.4,0 -8,3.6 -8,8 0,4.4000004 3.6,8.0000004 8,8.0000004 4.4,0 8,-3.6 8,-8.0000004 0,-4.4 -3.6,-8 -8,-8 z m 4.2,10.8000004 -1.4,1.4 -2.8,-2.8 -2.8,2.8 -1.4,-1.4 2.8,-2.8000004 -2.8,-2.8 1.4,-1.4 2.8,2.8 2.8,-2.8 1.4,1.4 -2.8,2.8 z"
       id="path1-4"
       style="fill:#d600ed;stroke-width:1" />
  </g>
</svg>
