<?xml version="1.0" encoding="UTF-8" standalone="no"?>
<!-- Uploaded to: SVG Repo, www.svgrepo.com, Generator: SVG Repo Mixer Tools -->

<svg
   width="32"
   height="32"
   viewBox="0 0 32 32"
   fill="none"
   version="1.1"
   id="svg1"
   sodipodi:docname="mouse_drag_good.svg"
   inkscape:version="1.3 (0e150ed6c4, 2023-07-21)"
   xmlns:inkscape="http://www.inkscape.org/namespaces/inkscape"
   xmlns:sodipodi="http://sodipodi.sourceforge.net/DTD/sodipodi-0.dtd"
   xmlns="http://www.w3.org/2000/svg"
   xmlns:svg="http://www.w3.org/2000/svg">
  <defs
     id="defs1" />
  <sodipodi:namedview
     id="namedview1"
     pagecolor="#505050"
     bordercolor="#ffffff"
     borderopacity="1"
     inkscape:showpageshadow="0"
     inkscape:pageopacity="0"
     inkscape:pagecheckerboard="1"
     inkscape:deskcolor="#505050"
     inkscape:zoom="11.73"
     inkscape:cx="5.6692242"
     inkscape:cy="22.975277"
     inkscape:window-width="1631"
     inkscape:window-height="1237"
     inkscape:window-x="1537"
     inkscape:window-y="98"
     inkscape:window-maximized="0"
     inkscape:current-layer="svg1" />
  <path
     d="m 22.633511,29.296759 c -3.671255,1.998925 -7.870527,1.574105 -10.074275,0.629642 -2.203748,-0.944463 -7.555706,-4.092674 -7.555706,-9.444632 0,-2.673901 3.6337279,-3.985194 4.7286124,-4.319596 0.1812736,-0.05534 0.3085246,-0.220879 0.3085246,-0.410402 v -4.714634 c 0,-1.217098 0.986649,-2.2037468 2.203748,-2.2037468 1.217098,0 2.203748,0.9866488 2.203748,2.2037468 V 9.463025 c 0,-1.2170909 0.986649,-2.20374 2.203747,-2.20374 1.217098,0 2.203747,0.9866491 2.203747,2.20374 v 1.574112 c 0,-1.217098 0.986651,-2.2037468 2.203748,-2.2037468 1.217098,0 2.203747,0.9866488 2.203747,2.2037468 v 2.829046 c 0.0023,-1.215083 0.988098,-2.199404 2.203748,-2.199404 1.217098,0 2.203747,0.984195 2.203747,2.201293 v 8.502625 c 0,2.518568 -2.436715,5.510186 -5.037136,6.926062 z"
     fill="#2f88ff"
     stroke="#000000"
     stroke-width="2.51857"
     stroke-linecap="round"
     stroke-linejoin="round"
     id="path1"
     style="fill:#e47cfa;stroke:#6f007c" />
</svg>
