<?xml version="1.0" encoding="UTF-8" standalone="no"?>
<!-- Created with Inkscape (http://www.inkscape.org/) -->

<svg
   xmlns:dc="http://purl.org/dc/elements/1.1/"
   xmlns:cc="http://creativecommons.org/ns#"
   xmlns:rdf="http://www.w3.org/1999/02/22-rdf-syntax-ns#"
   xmlns:svg="http://www.w3.org/2000/svg"
   xmlns="http://www.w3.org/2000/svg"
   xmlns:sodipodi="http://sodipodi.sourceforge.net/DTD/sodipodi-0.dtd"
   xmlns:inkscape="http://www.inkscape.org/namespaces/inkscape"
   width="210mm"
   height="297mm"
   viewBox="0 0 210 297"
   version="1.1"
   id="svg6317"
   inkscape:version="0.92.3 (2405546, 2018-03-11)"
   sodipodi:docname="Fire_Flame_Burn(Icon).svg">
  <defs
     id="defs6311" />
  <sodipodi:namedview
     id="base"
     pagecolor="#ffffff"
     bordercolor="#666666"
     borderopacity="1.0"
     inkscape:pageopacity="0.0"
     inkscape:pageshadow="2"
     inkscape:zoom="5.6"
     inkscape:cx="627.07538"
     inkscape:cy="444.05368"
     inkscape:document-units="mm"
     inkscape:current-layer="layer1"
     showgrid="false"
     inkscape:window-width="1920"
     inkscape:window-height="1017"
     inkscape:window-x="-8"
     inkscape:window-y="-8"
     inkscape:window-maximized="1" />
  <metadata
     id="metadata6314">
    <rdf:RDF>
      <cc:Work
         rdf:about="">
        <dc:format>image/svg+xml</dc:format>
        <dc:type
           rdf:resource="http://purl.org/dc/dcmitype/StillImage" />
        <dc:title></dc:title>
      </cc:Work>
    </rdf:RDF>
  </metadata>
  <g
     inkscape:label="Layer 1"
     inkscape:groupmode="layer"
     id="layer1">
    <path
       inkscape:connector-curvature="0"
       id="path30625"
       d="m 165.61601,184.37639 c -0.48879,-0.0392 -0.83456,-0.13831 -1.32676,-0.38017 -0.54474,-0.2677 -0.99776,-0.65659 -1.35506,-1.16327 -0.53076,-0.75267 -0.73431,-1.56055 -0.64801,-2.57209 0.0689,-0.80776 0.21633,-1.29352 0.54236,-1.78706 0.28223,-0.42723 0.59498,-0.64961 0.75206,-0.53475 0.0273,0.02 0.0741,0.1435 0.1141,0.30102 0.0836,0.3294 0.15102,0.49263 0.30021,0.72671 0.17888,0.28065 0.41421,0.4778 0.62189,0.52098 l 0.0839,0.0174 0.0177,-0.24909 c 0.01,-0.137 0.0179,-0.34165 0.0182,-0.45478 5.8e-4,-0.21351 0.0565,-0.73586 0.10901,-1.01798 0.18104,-0.97247 0.66417,-1.87004 1.40665,-2.61328 0.6514,-0.65206 0.83775,-0.69597 0.87744,-0.20675 0.0612,0.75407 0.24891,1.14511 1.11328,2.31911 0.18092,0.24572 0.40239,0.56252 0.49216,0.704 0.5752,0.90645 0.82534,1.73541 0.82522,2.73473 -6e-5,0.51755 -0.0378,0.75491 -0.19451,1.22334 -0.28207,0.84322 -0.94655,1.60364 -1.78839,2.04657 -0.5721,0.30102 -1.27973,0.44003 -1.9614,0.38532 z m 0.75723,-0.44904 c 0.14882,-0.0598 0.22916,-0.11605 0.38086,-0.26683 0.29327,-0.29151 0.39174,-0.53871 0.39174,-0.98347 0,-0.48089 -0.10765,-0.77002 -0.509,-1.36709 -0.24698,-0.36742 -0.41161,-0.66217 -0.41161,-0.73695 0,-0.0744 -0.052,-0.0437 -0.14734,0.0872 -0.25251,0.34653 -0.3619,0.70839 -0.38595,1.27673 -0.0203,0.4795 -0.0351,0.50493 -0.28033,0.48269 -0.19776,-0.0179 -0.36283,-0.12557 -0.48532,-0.31644 -0.0482,-0.0751 -0.0963,-0.13653 -0.10692,-0.13653 -0.0106,0 -0.0413,0.0696 -0.068,0.15472 -0.0609,0.19292 -0.0853,0.64682 -0.0461,0.85547 0.0907,0.48296 0.50571,0.92435 0.95998,1.02102 0.20021,0.0426 0.50079,0.0127 0.70803,-0.0706 z"
       style="opacity:1;fill:#ffffff;fill-opacity:1;stroke:none;stroke-width:0.71635801;stroke-linecap:round;stroke-linejoin:round;stroke-miterlimit:4;stroke-dasharray:none;stroke-opacity:1;paint-order:stroke fill markers"
       inkscape:export-filename="E:\Game Dev\1. Projects\UltimateButtonPack\Assets\Icons\PNG\Fire_Flame_Burn(Icon).png"
       inkscape:export-xdpi="666.60242"
       inkscape:export-ydpi="666.60242" />
  </g>
</svg>
