<?xml version="1.0" encoding="UTF-8" standalone="no"?>
<!-- Created with Inkscape (http://www.inkscape.org/) -->

<svg
   xmlns:dc="http://purl.org/dc/elements/1.1/"
   xmlns:cc="http://creativecommons.org/ns#"
   xmlns:rdf="http://www.w3.org/1999/02/22-rdf-syntax-ns#"
   xmlns:svg="http://www.w3.org/2000/svg"
   xmlns="http://www.w3.org/2000/svg"
   xmlns:sodipodi="http://sodipodi.sourceforge.net/DTD/sodipodi-0.dtd"
   xmlns:inkscape="http://www.inkscape.org/namespaces/inkscape"
   width="210mm"
   height="297mm"
   viewBox="0 0 210 297"
   version="1.1"
   id="svg6317"
   inkscape:version="0.92.3 (2405546, 2018-03-11)"
   sodipodi:docname="Medkit_Health_HP(Icon).svg">
  <defs
     id="defs6311" />
  <sodipodi:namedview
     id="base"
     pagecolor="#ffffff"
     bordercolor="#666666"
     borderopacity="1.0"
     inkscape:pageopacity="0.0"
     inkscape:pageshadow="2"
     inkscape:zoom="3.959798"
     inkscape:cx="590.85927"
     inkscape:cy="681.73302"
     inkscape:document-units="mm"
     inkscape:current-layer="layer1"
     showgrid="false"
     inkscape:window-width="1920"
     inkscape:window-height="1017"
     inkscape:window-x="-8"
     inkscape:window-y="-8"
     inkscape:window-maximized="1" />
  <metadata
     id="metadata6314">
    <rdf:RDF>
      <cc:Work
         rdf:about="">
        <dc:format>image/svg+xml</dc:format>
        <dc:type
           rdf:resource="http://purl.org/dc/dcmitype/StillImage" />
        <dc:title></dc:title>
      </cc:Work>
    </rdf:RDF>
  </metadata>
  <g
     inkscape:label="Layer 1"
     inkscape:groupmode="layer"
     id="layer1">
    <path
       sodipodi:nodetypes="ccccccccccccccccccccsccscccccccscccscccccccccccscscscscsccscscccscscc"
       inkscape:connector-curvature="0"
       id="path21662-1"
       d="m 137.80798,114.69989 h 1.11086 1.10181 c 0.41203,-0.009 0.33255,0.38995 0.3478,0.54512 l -0.007,0.33926 -1.37389,0.006 c -0.72788,0.003 -1.51034,-9.7e-4 -1.51918,-0.01 -0.009,-0.009 -0.0161,-0.1644 -0.0161,-0.34558 -0.004,-0.1552 0.0295,-0.52916 0.35535,-0.53512 z m 4.40826,7.46865 0.13694,-8e-4 c 0.50627,-0.003 0.95578,-0.31935 1.11593,-0.78508 0.043,-0.12506 0.045,-0.23883 0.045,-2.52415 v -1.95093 c 0.039,-0.58422 -0.25288,-1.05536 -0.70865,-1.23596 -0.11362,-0.0473 -0.20047,-0.064 -0.36886,-0.0709 l -0.22035,-0.009 -0.50002,0.005 h -0.41675 -0.41675 v -0.47725 c 0,-0.42357 -0.005,-0.48731 -0.0457,-0.56685 -0.0661,-0.12956 -0.18159,-0.23265 -0.29559,-0.26401 -0.0535,-0.0147 -0.33194,-0.0217 -0.94386,-0.0221 -0.20397,-1.5e-4 -0.44499,4.8e-4 -0.72706,0.002 -0.81306,0.004 -1.23212,0.003 -1.46259,0.0209 -0.43588,0.0835 -0.43281,0.37505 -0.45434,0.7827 l -0.0118,0.51291 -0.41083,0.007 -0.41069,0.006 -0.52396,-0.001 h -0.17588 c -0.3585,0 -0.66514,0.15955 -0.89111,0.46357 -0.10452,0.14062 -0.15196,0.24109 -0.19719,0.41754 -0.0488,0.1904 -0.0499,4.6134 -0.001,4.81007 0.0495,0.19989 0.17518,0.40576 0.344,0.56369 0.1666,0.15585 0.3165,0.23801 0.51659,0.28309 0.072,0.0162 0.19252,0.0306 0.26783,0.032 l 0.13695,0.002 h 0.52395 2.79792 2.79804 z m -3.87792,-5.28641 h 0.57987 0.57999 l 0.0493,0.0627 c 0.047,0.0597 0.0493,0.0917 0.0493,0.66669 v 0.60407 h 0.61788 c 0.61141,0 0.61816,5e-4 0.65485,0.0529 0.031,0.0443 0.037,0.14528 0.037,0.6192 0,0.53446 -0.003,0.56885 -0.0476,0.61381 -0.0451,0.0451 -0.0794,0.0476 -0.65484,0.0476 h -0.60723 v 0.58223 c 0,0.61764 -0.009,0.67854 -0.1109,0.72483 -0.0783,0.0357 -1.07375,0.0348 -1.13921,-0.001 -0.10466,-0.0572 -0.10721,-0.0736 -0.10721,-0.70339 v -0.60262 h -0.6154 c -0.5952,0 -0.6169,-0.002 -0.66077,-0.0501 -0.0412,-0.0455 -0.0461,-0.0981 -0.0527,-0.57644 -0.004,-0.28954 -0.001,-0.55027 0.006,-0.57934 0.0316,-0.12604 0.0406,-0.12761 0.7055,-0.12761 h 0.61736 v -0.60407 c 0,-0.575 0.002,-0.60695 0.0493,-0.66668 z"
       style="opacity:1;fill:#ffffff;fill-opacity:1;stroke:#ffffff;stroke-width:0.22500312;stroke-linecap:round;stroke-linejoin:round;stroke-miterlimit:4;stroke-dasharray:none;stroke-opacity:1;paint-order:stroke fill markers"
       inkscape:export-filename="E:\Game Dev\1. Projects\UltimateButtonPack\Assets\Icons\PNG\Medkit_Health_HP(Icon).png"
       inkscape:export-xdpi="745.65973"
       inkscape:export-ydpi="745.65973" />
  </g>
</svg>
